<?xml version="1.0" encoding="UTF-8"?>
<svg width="49px" height="49px" viewBox="0 0 49 49" version="1.1" xmlns="http://www.w3.org/2000/svg" xmlns:xlink="http://www.w3.org/1999/xlink">
    <!-- Generator: Sketch 63.1 (92452) - https://sketch.com -->
    <title>icon-whatsup</title>
    <desc>Created with Sketch.</desc>
    <g id="Page-1" stroke="none" stroke-width="1" fill="none" fill-rule="evenodd">
        <g id="icon-whatsup" fill="#50C85A" fill-rule="nonzero">
            <path d="M25.0192851,38.7646266 C25.0189023,38.7646266 25.0196681,38.7646266 25.0192851,38.7646266 L25.0133516,38.7646266 C22.5590449,38.763478 20.1474219,38.1482014 18.0056816,36.9802383 L10.2323867,39.0188146 L12.3127812,31.422364 C11.0294023,29.199559 10.3543125,26.6775854 10.3553652,24.0940744 C10.3588106,16.0115469 16.9368691,9.43605944 25.0192851,9.43605944 C28.941582,9.4375907 32.6235684,10.9643456 35.3918769,13.7348608 C38.1604726,16.5057588 39.6842577,20.1889008 39.6828242,24.1056545 C39.6794726,32.1883735 33.1005526,38.7646266 25.0192851,38.7646266 M24.5,0 C10.9711191,0 0,10.9710449 0,24.5000478 C0,38.0289552 10.9711191,49 24.5,49 C38.0288809,49 49,38.0289552 49,24.5000478 C49,10.9710449 38.0288809,0 24.5,0" id="Fill-1"></path>
            <path d="M32.0633315,29.152145 C31.762652,29.994323 30.3216326,30.7631944 29.6284961,30.8669356 C29.0067838,30.9597466 28.2206447,30.9983786 27.3563913,30.7241854 C26.8322043,30.5577852 26.1604573,30.3358865 25.2995961,29.9644539 C21.680982,28.4024011 19.3175709,24.7600614 19.1372197,24.5193181 C18.9568685,24.2786687 17.6642573,22.5638783 17.6642573,20.7886899 C17.6642573,19.0138785 18.5961661,18.1411718 18.9267157,17.7804806 C19.2576423,17.4194126 19.6484974,17.3292398 19.8888715,17.3292398 C20.1292455,17.3292398 20.3699023,17.331407 20.5801235,17.3417717 C20.8016521,17.3527959 21.0991279,17.2574408 21.3917039,17.9608262 C21.6923835,18.6829623 22.4138825,20.4577737 22.5040582,20.6381194 C22.5942338,20.8188417 22.6542566,21.0293391 22.534211,21.2700826 C22.4138825,21.5108261 22.0141699,22.0301911 21.6324549,22.5034805 C21.4723626,22.7018229 21.2636489,22.8784937 21.4741528,23.2395618 C21.6843742,23.6003472 22.4087001,24.7813562 23.4809133,25.7376399 C24.8589889,26.9662323 26.0213777,27.3468048 26.3820802,27.5275273 C26.7424056,27.7078729 26.9530039,27.677721 27.1635078,27.4373546 C27.3736348,27.1966111 28.0652639,26.3843022 28.3056379,26.0232343 C28.546012,25.6621662 28.7867628,25.722564 29.1172184,25.8428886 C29.4481448,25.9628363 31.221504,26.835543 31.5823007,27.0158887 C31.9430032,27.1966111 32.183283,27.2867838 32.2734585,27.4373546 C32.3640112,27.587831 32.3640112,28.3096843 32.0633315,29.152145 M25.0051355,12 C18.386039,12 13.0029231,17.3807806 13.0000007,23.9948648 C12.9992482,26.2613393 13.6337754,28.468641 14.8347975,30.3785703 L15.120118,30.8323551 L13.9076001,35.2591134 L18.4493598,34.0680221 L18.8877056,34.3278932 C20.729945,35.4209909 22.8419575,35.9992463 24.9951474,36 L24.9999529,36 C31.613867,36 36.9969829,30.6188426 37.0000007,24.0044757 C37.0010346,20.7989605 35.7540295,17.7852861 33.4885206,15.5179635 C31.2230118,13.2507351 28.2099028,12.0011307 25.0051355,12" id="Fill-4"></path>
        </g>
    </g>
</svg>